Patient4_TMGait_0pt7_02_left_22_EMG.mot
version=1
nRows=20
nColumns=33
inDegrees=no
endheader
time	1LAddLong	2LGlutMax	3LGlutMed	4LIliopsoas	5LSemiMemb	6LBicFemLong	7LRecFem	8LVastMed	9LVastLat	10LGasMed	11LTibAnt	12lTibPost	13LPeroneusLong	14LSol	15LExtDigLong	16LFlexDigLong	17RAddLong	18RGlutMax	19RGlutMed	20RIliopsoas	21RSemiMemb	22RBicFemLong	23RRecFem	24RVastMed	25RVastLat	26RGasMed	27RTibAnt	28RTibPost	29RPeroneusLong	30RSol	31RExtDigLong	32RFlexDigLong
25.41	-0.002136	0.98343	0.010986	0.00473	-0.048065	-0.21378	-0.20248	0.004272	-0.47455	-0.022278	0.01709	0.10086	-0.22614	-0.26169	-0.030365	0.007629	-0.10056	-0.979	-0.22461	-0.12558	-0.30075	0.11536	0.80582	-0.10071	-0.072937	0.001831	-0.66025	-0.000153	0.10757	0.019073	0.000763	-0.039063
25.411	0.022583	1.0304	-0.066376	-0.00061	-0.079803	-0.067291	-0.31769	0.000916	-0.30304	0.000305	0.009613	-0.22003	-0.068817	-0.20905	-0.043488	-0.0383	-0.028381	-1.0689	-0.4895	-0.031891	-0.31967	0.058136	0.78781	-0.068512	-0.082397	0.014038	-0.20172	-0.000305	0.19424	0.071716	-0.001526	-0.041656
25.412	0.026703	1.0641	-0.071564	-0.009003	-0.13886	-0.22079	-0.36301	-0.010071	-0.21881	-0.1236	0.023804	0.039215	-0.39551	-0.18646	-0.00061	-0.058746	0.050201	-1.1024	-0.32638	0.006104	-0.3244	0.042725	0.78812	-0.18356	-0.075226	0.019531	0.086517	-0.000305	0.27618	0.053406	0.009003	-0.033264
25.413	0.02243	1.1188	-0.014496	-0.006256	-0.18478	-0.17532	-0.30807	0.001221	-0.22064	-0.18799	0.020142	-0.046082	0.20889	-0.093994	0.078888	-0.066376	0.068054	-1.0504	-0.2536	0.046997	-0.32028	-0.094452	0.83862	-0.27588	-0.10666	0.010834	0.42877	0.001678	0.11612	-0.080872	0.000305	-0.042877
25.414	0.052185	1.19	0.075378	0.048828	-0.070496	-0.0383	-0.23514	-0.007019	-0.31296	-0.17609	0.005035	-0.04364	0.8577	-0.006714	0.081787	-0.057068	0.11108	-1.0022	-0.083618	0.087738	-0.24918	-0.20126	0.88394	-0.33493	-0.10895	0.010834	0.52124	-0.001678	-0.099487	-0.12741	-0.003052	-0.046844
25.415	0.052032	1.2512	0.094147	0.050964	-0.002594	-0.033569	-0.16876	0.013275	-0.26077	-0.25116	-0.015564	0.038605	-0.12497	-0.17303	0.11627	-0.0737	0.062256	-0.99197	-0.077362	0.072632	-0.15976	-0.26855	0.905	-0.33569	-0.096283	0.012665	0.17578	-0.001831	-0.040741	-0.1326	-0.001526	-0.046997
25.416	0.033875	1.2584	0.001068	0.025787	-0.053101	-0.002594	-0.15793	0.00824	-0.17273	-0.30014	0.030823	0.014191	-0.93399	-0.14374	0.14221	-0.075836	0.045929	-1.0088	-0.26184	0.12466	-0.16769	-0.19577	0.85892	-0.33752	-0.058441	0.016937	-0.048676	0.001831	0.019379	-0.1294	-0.000458	-0.048676
25.417	0.016785	1.2543	0.0383	-0.003967	-0.053406	0.10086	-0.13245	-0.001678	-0.099487	0.31464	0.006561	-0.11734	-0.19531	-0.17548	0.0737	-0.062561	0.012817	-0.87906	-0.48141	0.11917	-0.30426	-0.11063	0.84488	-0.31937	-0.04715	0.009003	0.15976	0.001984	-0.040741	-0.006104	0.000153	-0.052795
25.418	-0.002594	1.2556	0.30304	-0.016327	-0.12024	0.20477	-0.11978	0.00351	-0.070496	0.8757	0.019989	-0.080109	0.31723	-0.30472	-0.1001	-0.11063	-0.056305	-0.78888	-0.42862	0.049591	-0.28778	0.14542	0.74616	-0.21927	-0.02182	0.005035	0.44617	0.001221	-0.034332	0.067291	-0.000916	-0.05188
25.419	0.006409	1.3481	0.2301	0.016632	-0.12543	0.11169	-0.19333	0.010376	-0.012207	0.10834	0.011292	-0.03067	-0.009613	0.25482	-0.047913	-0.09903	-0.061493	-0.72449	-0.69534	0.076294	-0.24277	0.28763	0.70221	-0.26703	-0.033875	0.00885	0.23331	0.001526	0.007935	0.072632	-0.001984	-0.058441
25.42	0.019379	1.3702	0.11307	-0.009003	-0.00061	0.032043	-0.1799	0.00412	0.047302	-0.40802	-0.006256	0.05188	0.10696	1.0121	0.002136	-0.032654	-0.066833	-0.76492	-0.94452	0.084991	-0.20416	0.34943	0.72235	-0.26154	-0.038757	0.010986	-0.21927	0.001373	0.002441	0.032501	-0.003967	-0.048523
25.421	0.010376	1.2523	0.060272	0.001221	-0.031586	0.10452	-0.13565	0.003052	0.071106	-0.23086	-0.040588	-0.018311	-0.21027	1.0271	-0.058899	-0.025024	-0.095825	-0.70252	-0.94345	-0.013275	-0.17731	0.40375	0.70145	-0.3215	-0.03952	0.011902	-0.037842	0	-0.023346	-0.054016	-0.004272	-0.050507
25.422	0.005493	1.2427	0.050812	0.029907	0.001526	0.17731	-0.14557	0.002136	0.10239	0.289	-0.037689	0.029602	0.49911	0.24841	-0.16022	-0.022583	-0.10147	-0.51544	-0.79315	-0.060425	-0.1059	0.29831	0.72586	-0.20645	-0.04364	0.012054	0.12817	0.009613	-0.036774	-0.085754	-0.001678	-0.048065
25.423	-0.007019	1.1409	0.13611	0.018616	-0.02182	0.36514	-0.15671	0.018158	0.090332	0.30807	-0.020142	-0.103	0.72022	-0.29129	-0.13916	0.069275	-0.09079	-0.40344	-0.50522	-0.048828	0.018921	-0.072327	0.68237	-0.13809	-0.03891	0.015564	0.19974	-0.000305	-0.033722	-0.095825	-0.002441	-0.046692
25.424	-0.016785	1.0239	0.018463	0.018768	-0.055542	0.47974	-0.16861	0.021973	0.10498	0.3122	0.003967	-0.15427	0.40894	-0.64056	-0.13443	0.010071	-0.10712	-0.2652	-0.63751	0.055695	0.019531	-0.2385	0.64697	-0.074921	-0.049591	0.007935	0.15213	-0.004883	0.001526	-0.093231	-0.003052	-0.042877
25.425	-0.006561	0.8699	0.28824	-0.016327	-0.090942	0.19882	-0.14236	0.010834	0.14648	0.11337	0.019226	-0.066833	0.083313	-0.68634	-0.062256	-0.016174	-0.097351	-0.14908	-0.71838	0.099792	-0.068512	-0.051727	0.69778	-0.15396	-0.058136	0.010223	0.079041	-0.002899	0.044708	-0.050964	0	-0.048981
25.426	0	0.73547	0.14877	-0.01358	-0.15488	0.020447	-0.11276	0.018005	0.1387	-0.12512	0.009766	-0.03006	-0.044403	-0.4422	-0.022736	-0.01358	-0.093994	-0.088348	-0.79712	0.065002	-0.14923	0.069733	0.74738	-0.13351	-0.061493	0.010223	0.21271	-0.006866	-0.000458	-0.009003	0.002594	-0.03952
25.427	0.00885	0.54703	-0.022583	0.005798	-0.15305	0.075073	-0.15732	0.011292	0.13687	-0.20233	0.016632	-0.04715	-0.40237	-0.52902	-0.054626	-0.009155	-0.068817	0.068359	-0.80246	0.057373	-0.17425	0.15259	0.76355	-0.19867	-0.078583	0.011139	0.28839	-0.009308	-0.080719	-0.08194	-0.002289	-0.036926
25.428	0.014648	0.27847	-0.12299	0.022736	-0.083771	-0.067444	-0.159	0.002899	0.18707	-0.16281	-0.007477	-0.033417	-0.31769	-0.63126	-0.066223	-0.003662	0.038452	0.039673	-0.9346	0.13855	-0.16296	0.2034	0.85052	-0.25223	-0.10346	0.011597	0.31082	-0.007935	-0.22537	-0.13473	0.006409	-0.03479
25.429	0.026703	0.12283	0.15625	-0.003967	-0.021973	-0.32272	-0.13809	-0.00061	0.21072	-0.13016	-0.032654	-0.051117	-0.34698	-0.39078	-0.070496	-0.010223	0.15808	0.09964	-1.0231	0.3801	-0.17883	0.21805	0.93582	-0.26382	-0.088959	0.013428	0.19257	-0.006104	-0.098419	-0.17075	-0.005035	-0.033264
